<mxfile host="app.diagrams.net" agent="Mozilla/5.0 (Windows NT 10.0; Win64; x64) AppleWebKit/537.36 (KHTML, like Gecko) Chrome/135.0.0.0 Safari/537.36 Edg/135.0.0.0" version="26.2.12">
  <diagram name="Page-1" id="VCiltza_0ypSFu5VUfY7">
    <mxGraphModel dx="2292" dy="970" grid="1" gridSize="10" guides="1" tooltips="1" connect="1" arrows="1" fold="1" page="0" pageScale="1" pageWidth="827" pageHeight="1169" math="0" shadow="0">
      <root>
        <mxCell id="0" />
        <mxCell id="1" parent="0" />
        <mxCell id="-mwh8QnspEmpaRvAdiTf-6" value="" style="endArrow=none;html=1;rounded=0;entryX=0.69;entryY=0.975;entryDx=0;entryDy=0;exitX=0.5;exitY=1;exitDx=0;exitDy=0;entryPerimeter=0;labelBackgroundColor=none;strokeColor=#A8201A;fontColor=default;" parent="1" source="-mwh8QnspEmpaRvAdiTf-14" target="-mwh8QnspEmpaRvAdiTf-9" edge="1">
          <mxGeometry width="50" height="50" relative="1" as="geometry">
            <mxPoint x="710" y="51" as="sourcePoint" />
            <mxPoint x="635" y="-19" as="targetPoint" />
          </mxGeometry>
        </mxCell>
        <mxCell id="stNJQ5JibclTyAwjcQpj-17" value="" style="endArrow=none;html=1;rounded=0;exitX=0.5;exitY=1;exitDx=0;exitDy=0;entryX=0.5;entryY=0;entryDx=0;entryDy=0;labelBackgroundColor=none;fontColor=default;strokeColor=#A8201A;" parent="1" source="-mwh8QnspEmpaRvAdiTf-27" target="-mwh8QnspEmpaRvAdiTf-20" edge="1">
          <mxGeometry width="50" height="50" relative="1" as="geometry">
            <mxPoint x="-134.3926240134208" y="-243.63557440805243" as="sourcePoint" />
            <mxPoint x="-110" y="-229" as="targetPoint" />
          </mxGeometry>
        </mxCell>
        <mxCell id="stNJQ5JibclTyAwjcQpj-19" value="" style="endArrow=none;html=1;rounded=0;entryX=0.5;entryY=1;entryDx=0;entryDy=0;exitX=0.5;exitY=0;exitDx=0;exitDy=0;labelBackgroundColor=none;fontColor=default;strokeColor=#A8201A;" parent="1" source="-mwh8QnspEmpaRvAdiTf-20" target="-mwh8QnspEmpaRvAdiTf-25" edge="1">
          <mxGeometry width="50" height="50" relative="1" as="geometry">
            <mxPoint x="-30" y="-279" as="sourcePoint" />
            <mxPoint x="-55" y="-309" as="targetPoint" />
          </mxGeometry>
        </mxCell>
        <mxCell id="-mwh8QnspEmpaRvAdiTf-8" value="" style="endArrow=none;html=1;rounded=0;entryX=0.5;entryY=1;entryDx=0;entryDy=0;exitX=0.5;exitY=1;exitDx=0;exitDy=0;labelBackgroundColor=none;fontColor=default;strokeColor=#A8201A;" parent="1" source="-mwh8QnspEmpaRvAdiTf-14" target="-mwh8QnspEmpaRvAdiTf-11" edge="1">
          <mxGeometry width="50" height="50" relative="1" as="geometry">
            <mxPoint x="720" y="-64" as="sourcePoint" />
            <mxPoint x="785" y="-124" as="targetPoint" />
          </mxGeometry>
        </mxCell>
        <mxCell id="stNJQ5JibclTyAwjcQpj-20" value="" style="endArrow=none;html=1;rounded=0;entryX=0.42;entryY=1;entryDx=0;entryDy=0;exitX=0.5;exitY=0;exitDx=0;exitDy=0;entryPerimeter=0;labelBackgroundColor=none;fontColor=default;strokeColor=#A8201A;" parent="1" source="-mwh8QnspEmpaRvAdiTf-20" target="NRucx3k98AE8DFw6DZ2k-14" edge="1">
          <mxGeometry width="50" height="50" relative="1" as="geometry">
            <mxPoint x="-20" y="-259" as="sourcePoint" />
            <mxPoint x="145.5999999999999" y="-315.26300000000003" as="targetPoint" />
          </mxGeometry>
        </mxCell>
        <mxCell id="-mwh8QnspEmpaRvAdiTf-9" value="ID" style="ellipse;whiteSpace=wrap;html=1;align=center;fontStyle=4;labelBackgroundColor=none;fillColor=#FAE5C7;strokeColor=#0F8B8D;fontColor=#143642;" parent="1" vertex="1">
          <mxGeometry x="550" y="70" width="100" height="40" as="geometry" />
        </mxCell>
        <mxCell id="stNJQ5JibclTyAwjcQpj-22" value="" style="endArrow=none;html=1;rounded=0;entryX=0.5;entryY=1;entryDx=0;entryDy=0;exitX=0.5;exitY=0;exitDx=0;exitDy=0;labelBackgroundColor=none;fontColor=default;strokeColor=#A8201A;" parent="1" source="-mwh8QnspEmpaRvAdiTf-25" target="-mwh8QnspEmpaRvAdiTf-23" edge="1">
          <mxGeometry width="50" height="50" relative="1" as="geometry">
            <mxPoint x="-55" y="-349" as="sourcePoint" />
            <mxPoint x="-109.74873734152902" y="-376.3223304703365" as="targetPoint" />
          </mxGeometry>
        </mxCell>
        <mxCell id="-mwh8QnspEmpaRvAdiTf-10" value="Name" style="ellipse;whiteSpace=wrap;html=1;align=center;labelBackgroundColor=none;fillColor=#FAE5C7;strokeColor=#0F8B8D;fontColor=#143642;" parent="1" vertex="1">
          <mxGeometry x="580" y="-20.03" width="100" height="40" as="geometry" />
        </mxCell>
        <mxCell id="-mwh8QnspEmpaRvAdiTf-11" value="Address" style="ellipse;whiteSpace=wrap;html=1;align=center;labelBackgroundColor=none;fillColor=#FAE5C7;strokeColor=#0F8B8D;fontColor=#143642;" parent="1" vertex="1">
          <mxGeometry x="650" y="30" width="100" height="40" as="geometry" />
        </mxCell>
        <mxCell id="stNJQ5JibclTyAwjcQpj-24" value="" style="endArrow=none;html=1;rounded=0;entryX=0.5;entryY=1;entryDx=0;entryDy=0;exitX=0.5;exitY=0;exitDx=0;exitDy=0;labelBackgroundColor=none;fontColor=default;strokeColor=#A8201A;" parent="1" source="-mwh8QnspEmpaRvAdiTf-25" target="-mwh8QnspEmpaRvAdiTf-22" edge="1">
          <mxGeometry width="50" height="50" relative="1" as="geometry">
            <mxPoint x="-60" y="-349" as="sourcePoint" />
            <mxPoint x="-30" y="-376" as="targetPoint" />
          </mxGeometry>
        </mxCell>
        <mxCell id="-mwh8QnspEmpaRvAdiTf-12" value="Logo" style="ellipse;whiteSpace=wrap;html=1;align=center;labelBackgroundColor=none;fillColor=#FAE5C7;strokeColor=#0F8B8D;fontColor=#143642;" parent="1" vertex="1">
          <mxGeometry x="450" y="50" width="100" height="40" as="geometry" />
        </mxCell>
        <mxCell id="stNJQ5JibclTyAwjcQpj-25" value="" style="endArrow=none;html=1;rounded=0;entryX=0.5;entryY=1;entryDx=0;entryDy=0;exitX=0.5;exitY=0;exitDx=0;exitDy=0;labelBackgroundColor=none;fontColor=default;strokeColor=#A8201A;" parent="1" source="-mwh8QnspEmpaRvAdiTf-20" target="-mwh8QnspEmpaRvAdiTf-26" edge="1">
          <mxGeometry width="50" height="50" relative="1" as="geometry">
            <mxPoint x="50" y="-239" as="sourcePoint" />
            <mxPoint x="124.24966654934724" y="-340.7698532817126" as="targetPoint" />
          </mxGeometry>
        </mxCell>
        <mxCell id="-mwh8QnspEmpaRvAdiTf-13" value="" style="endArrow=none;html=1;rounded=0;entryX=0.5;entryY=1;entryDx=0;entryDy=0;exitX=0.5;exitY=1;exitDx=0;exitDy=0;labelBackgroundColor=none;fontColor=default;strokeColor=#A8201A;" parent="1" source="-mwh8QnspEmpaRvAdiTf-14" target="-mwh8QnspEmpaRvAdiTf-12" edge="1">
          <mxGeometry width="50" height="50" relative="1" as="geometry">
            <mxPoint x="720" y="-64" as="sourcePoint" />
            <mxPoint x="610" y="-134" as="targetPoint" />
          </mxGeometry>
        </mxCell>
        <mxCell id="stNJQ5JibclTyAwjcQpj-26" value="" style="endArrow=none;html=1;rounded=0;entryX=0.5;entryY=1;entryDx=0;entryDy=0;exitX=0.5;exitY=0;exitDx=0;exitDy=0;labelBackgroundColor=none;fontColor=default;strokeColor=#A8201A;" parent="1" source="-mwh8QnspEmpaRvAdiTf-20" target="-mwh8QnspEmpaRvAdiTf-21" edge="1">
          <mxGeometry width="50" height="50" relative="1" as="geometry">
            <mxPoint x="82.75986082174745" y="-216.05197216434954" as="sourcePoint" />
            <mxPoint x="100" y="-219" as="targetPoint" />
          </mxGeometry>
        </mxCell>
        <mxCell id="-mwh8QnspEmpaRvAdiTf-15" value="COUPONS" style="whiteSpace=wrap;html=1;align=center;labelBackgroundColor=none;fillColor=#FAE5C7;strokeColor=#0F8B8D;fontColor=#143642;" parent="1" vertex="1">
          <mxGeometry x="-580" y="620" width="100" height="40" as="geometry" />
        </mxCell>
        <mxCell id="stNJQ5JibclTyAwjcQpj-37" value="" style="endArrow=none;html=1;rounded=0;entryX=0.5;entryY=1;entryDx=0;entryDy=0;exitX=0.5;exitY=0;exitDx=0;exitDy=0;labelBackgroundColor=none;fontColor=default;strokeColor=#A8201A;" parent="1" source="-mwh8QnspEmpaRvAdiTf-20" target="stNJQ5JibclTyAwjcQpj-35" edge="1">
          <mxGeometry width="50" height="50" relative="1" as="geometry">
            <mxPoint x="-80" y="-279" as="sourcePoint" />
            <mxPoint x="-131.71572875253787" y="-324.85786437626894" as="targetPoint" />
          </mxGeometry>
        </mxCell>
        <mxCell id="-mwh8QnspEmpaRvAdiTf-16" value="CATEGORIES" style="whiteSpace=wrap;html=1;align=center;labelBackgroundColor=none;fillColor=#FAE5C7;strokeColor=#0F8B8D;fontColor=#143642;" parent="1" vertex="1">
          <mxGeometry x="660" y="620" width="100" height="40" as="geometry" />
        </mxCell>
        <mxCell id="stNJQ5JibclTyAwjcQpj-35" value="ID" style="ellipse;whiteSpace=wrap;html=1;align=center;fontStyle=4;labelBackgroundColor=none;fillColor=#FAE5C7;strokeColor=#0F8B8D;fontColor=#143642;" parent="1" vertex="1">
          <mxGeometry x="-135" y="-330" width="100" height="40" as="geometry" />
        </mxCell>
        <mxCell id="stNJQ5JibclTyAwjcQpj-38" style="edgeStyle=orthogonalEdgeStyle;rounded=0;orthogonalLoop=1;jettySize=auto;html=1;exitX=0.5;exitY=1;exitDx=0;exitDy=0;labelBackgroundColor=none;fontColor=default;strokeColor=#A8201A;" parent="1" source="stNJQ5JibclTyAwjcQpj-35" target="stNJQ5JibclTyAwjcQpj-35" edge="1">
          <mxGeometry relative="1" as="geometry" />
        </mxCell>
        <mxCell id="-mwh8QnspEmpaRvAdiTf-17" value="MEALS" style="whiteSpace=wrap;html=1;align=center;labelBackgroundColor=none;fillColor=#FAE5C7;strokeColor=#0F8B8D;fontColor=#143642;" parent="1" vertex="1">
          <mxGeometry x="660" y="1050" width="100" height="40" as="geometry" />
        </mxCell>
        <mxCell id="-mwh8QnspEmpaRvAdiTf-18" value="ORDER" style="whiteSpace=wrap;html=1;align=center;labelBackgroundColor=none;fillColor=#FAE5C7;strokeColor=#0F8B8D;fontColor=#143642;" parent="1" vertex="1">
          <mxGeometry x="15" y="524.67" width="100" height="40" as="geometry" />
        </mxCell>
        <mxCell id="-mwh8QnspEmpaRvAdiTf-19" value="Payment" style="whiteSpace=wrap;html=1;align=center;labelBackgroundColor=none;fillColor=#FAE5C7;strokeColor=#0F8B8D;fontColor=#143642;" parent="1" vertex="1">
          <mxGeometry x="-30" y="930" width="100" height="40" as="geometry" />
        </mxCell>
        <mxCell id="-mwh8QnspEmpaRvAdiTf-20" value="USER" style="whiteSpace=wrap;html=1;align=center;labelBackgroundColor=none;fillColor=#FAE5C7;strokeColor=#0F8B8D;fontColor=#143642;" parent="1" vertex="1">
          <mxGeometry x="-60" y="-159" width="100" height="40" as="geometry" />
        </mxCell>
        <mxCell id="-mwh8QnspEmpaRvAdiTf-21" value="Role" style="ellipse;whiteSpace=wrap;html=1;align=center;labelBackgroundColor=none;fillColor=#FAE5C7;strokeColor=#0F8B8D;fontColor=#143642;" parent="1" vertex="1">
          <mxGeometry x="80" y="-209" width="100" height="40" as="geometry" />
        </mxCell>
        <mxCell id="-mwh8QnspEmpaRvAdiTf-22" value="L-name" style="ellipse;whiteSpace=wrap;html=1;align=center;labelBackgroundColor=none;fillColor=#FAE5C7;strokeColor=#0F8B8D;fontColor=#143642;" parent="1" vertex="1">
          <mxGeometry x="35" y="-400" width="100" height="40" as="geometry" />
        </mxCell>
        <mxCell id="-mwh8QnspEmpaRvAdiTf-25" value="Name" style="ellipse;whiteSpace=wrap;html=1;align=center;labelBackgroundColor=none;fillColor=#FAE5C7;strokeColor=#0F8B8D;fontColor=#143642;" parent="1" vertex="1">
          <mxGeometry x="-40" y="-280" width="100" height="40" as="geometry" />
        </mxCell>
        <mxCell id="-mwh8QnspEmpaRvAdiTf-26" value="HashPassword" style="ellipse;whiteSpace=wrap;html=1;align=center;labelBackgroundColor=none;fillColor=#FAE5C7;strokeColor=#0F8B8D;fontColor=#143642;" parent="1" vertex="1">
          <mxGeometry x="160" y="-370" width="100" height="40" as="geometry" />
        </mxCell>
        <mxCell id="-mwh8QnspEmpaRvAdiTf-27" value="Email" style="ellipse;whiteSpace=wrap;html=1;align=center;labelBackgroundColor=none;fillColor=#FAE5C7;strokeColor=#0F8B8D;fontColor=#143642;" parent="1" vertex="1">
          <mxGeometry x="-180" y="-278" width="100" height="38" as="geometry" />
        </mxCell>
        <mxCell id="stNJQ5JibclTyAwjcQpj-42" value="ExpireDate" style="ellipse;whiteSpace=wrap;html=1;align=center;labelBackgroundColor=none;fillColor=#FAE5C7;strokeColor=#0F8B8D;fontColor=#143642;" parent="1" vertex="1">
          <mxGeometry x="-700" y="740" width="100" height="40" as="geometry" />
        </mxCell>
        <mxCell id="stNJQ5JibclTyAwjcQpj-43" value="Amount" style="ellipse;whiteSpace=wrap;html=1;align=center;labelBackgroundColor=none;fillColor=#FAE5C7;strokeColor=#0F8B8D;fontColor=#143642;" parent="1" vertex="1">
          <mxGeometry x="-600" y="750" width="100" height="40" as="geometry" />
        </mxCell>
        <mxCell id="stNJQ5JibclTyAwjcQpj-44" value="ID" style="ellipse;whiteSpace=wrap;html=1;align=center;fontStyle=4;labelBackgroundColor=none;fillColor=#FAE5C7;strokeColor=#0F8B8D;fontColor=#143642;" parent="1" vertex="1">
          <mxGeometry x="-390" y="740" width="100" height="40" as="geometry" />
        </mxCell>
        <mxCell id="stNJQ5JibclTyAwjcQpj-46" value="" style="endArrow=none;html=1;rounded=0;entryX=0.5;entryY=1;entryDx=0;entryDy=0;exitX=0;exitY=0;exitDx=0;exitDy=0;labelBackgroundColor=none;strokeColor=#A8201A;fontColor=default;" parent="1" source="stNJQ5JibclTyAwjcQpj-44" target="-mwh8QnspEmpaRvAdiTf-15" edge="1">
          <mxGeometry relative="1" as="geometry">
            <mxPoint x="-440" y="690" as="sourcePoint" />
            <mxPoint x="-480" y="660" as="targetPoint" />
          </mxGeometry>
        </mxCell>
        <mxCell id="stNJQ5JibclTyAwjcQpj-47" value="" style="endArrow=none;html=1;rounded=0;exitX=0.6;exitY=0;exitDx=0;exitDy=0;exitPerimeter=0;entryX=0.5;entryY=1;entryDx=0;entryDy=0;labelBackgroundColor=none;strokeColor=#A8201A;fontColor=default;" parent="1" source="stNJQ5JibclTyAwjcQpj-42" target="-mwh8QnspEmpaRvAdiTf-15" edge="1">
          <mxGeometry relative="1" as="geometry">
            <mxPoint x="-600" y="740" as="sourcePoint" />
            <mxPoint x="-530" y="660" as="targetPoint" />
          </mxGeometry>
        </mxCell>
        <mxCell id="stNJQ5JibclTyAwjcQpj-48" value="" style="endArrow=none;html=1;rounded=0;exitX=0.5;exitY=1;exitDx=0;exitDy=0;entryX=0.5;entryY=0;entryDx=0;entryDy=0;labelBackgroundColor=none;strokeColor=#A8201A;fontColor=default;" parent="1" source="-mwh8QnspEmpaRvAdiTf-15" target="stNJQ5JibclTyAwjcQpj-43" edge="1">
          <mxGeometry relative="1" as="geometry">
            <mxPoint x="-330" y="580" as="sourcePoint" />
            <mxPoint x="-520" y="730" as="targetPoint" />
          </mxGeometry>
        </mxCell>
        <mxCell id="stNJQ5JibclTyAwjcQpj-49" value="Code" style="ellipse;whiteSpace=wrap;html=1;align=center;labelBackgroundColor=none;fillColor=#FAE5C7;strokeColor=#0F8B8D;fontColor=#143642;" parent="1" vertex="1">
          <mxGeometry x="-490" y="750" width="100" height="40" as="geometry" />
        </mxCell>
        <mxCell id="stNJQ5JibclTyAwjcQpj-50" value="Name" style="ellipse;whiteSpace=wrap;html=1;align=center;labelBackgroundColor=none;fillColor=#FAE5C7;strokeColor=#0F8B8D;fontColor=#143642;" parent="1" vertex="1">
          <mxGeometry x="730" y="545" width="100" height="40" as="geometry" />
        </mxCell>
        <mxCell id="stNJQ5JibclTyAwjcQpj-51" value="ID" style="ellipse;whiteSpace=wrap;html=1;align=center;fontStyle=4;labelBackgroundColor=none;fillColor=#FAE5C7;strokeColor=#0F8B8D;fontColor=#143642;" parent="1" vertex="1">
          <mxGeometry x="560" y="545" width="100" height="40" as="geometry" />
        </mxCell>
        <mxCell id="stNJQ5JibclTyAwjcQpj-52" value="" style="endArrow=none;html=1;rounded=0;entryX=0.288;entryY=0.06;entryDx=0;entryDy=0;entryPerimeter=0;exitX=0.5;exitY=1;exitDx=0;exitDy=0;labelBackgroundColor=none;strokeColor=#A8201A;fontColor=default;" parent="1" source="-mwh8QnspEmpaRvAdiTf-15" target="stNJQ5JibclTyAwjcQpj-49" edge="1">
          <mxGeometry relative="1" as="geometry">
            <mxPoint x="-540" y="670" as="sourcePoint" />
            <mxPoint x="-230" y="585.5" as="targetPoint" />
          </mxGeometry>
        </mxCell>
        <mxCell id="-mwh8QnspEmpaRvAdiTf-28" value="ID" style="ellipse;whiteSpace=wrap;html=1;align=center;fontStyle=4;labelBackgroundColor=none;fillColor=#FAE5C7;strokeColor=#0F8B8D;fontColor=#143642;" parent="1" vertex="1">
          <mxGeometry x="500" y="1000" width="100" height="40" as="geometry" />
        </mxCell>
        <mxCell id="XpqC3ykQgRFOH7uif8_a-1" value="Hot-Line" style="ellipse;whiteSpace=wrap;html=1;align=center;labelBackgroundColor=none;fillColor=#FAE5C7;strokeColor=#0F8B8D;fontColor=#143642;" parent="1" vertex="1">
          <mxGeometry x="750" y="-40" width="100" height="40" as="geometry" />
        </mxCell>
        <mxCell id="stNJQ5JibclTyAwjcQpj-57" value="" style="endArrow=none;html=1;rounded=0;entryX=0.5;entryY=0;entryDx=0;entryDy=0;labelBackgroundColor=none;fontColor=default;exitX=0.5;exitY=1;exitDx=0;exitDy=0;strokeColor=#A8201A;" parent="1" source="stNJQ5JibclTyAwjcQpj-54" target="-mwh8QnspEmpaRvAdiTf-20" edge="1">
          <mxGeometry relative="1" as="geometry">
            <mxPoint x="-160" y="-219" as="sourcePoint" />
            <mxPoint x="-100" y="-200" as="targetPoint" />
          </mxGeometry>
        </mxCell>
        <mxCell id="-mwh8QnspEmpaRvAdiTf-30" value="Name" style="ellipse;whiteSpace=wrap;html=1;align=center;labelBackgroundColor=none;fillColor=#FAE5C7;strokeColor=#0F8B8D;fontColor=#143642;" parent="1" vertex="1">
          <mxGeometry x="540" y="950" width="100" height="40" as="geometry" />
        </mxCell>
        <mxCell id="-mwh8QnspEmpaRvAdiTf-31" value="Image" style="ellipse;whiteSpace=wrap;html=1;align=center;labelBackgroundColor=none;fillColor=#FAE5C7;strokeColor=#0F8B8D;fontColor=#143642;" parent="1" vertex="1">
          <mxGeometry x="590" y="900" width="100" height="40" as="geometry" />
        </mxCell>
        <mxCell id="stNJQ5JibclTyAwjcQpj-54" value="Image" style="ellipse;whiteSpace=wrap;html=1;align=center;labelBackgroundColor=none;fillColor=#FAE5C7;strokeColor=#0F8B8D;fontColor=#143642;" parent="1" vertex="1">
          <mxGeometry x="-205" y="-230" width="90" height="31" as="geometry" />
        </mxCell>
        <mxCell id="stNJQ5JibclTyAwjcQpj-64" value="" style="endArrow=none;html=1;rounded=0;entryX=0.25;entryY=0;entryDx=0;entryDy=0;labelBackgroundColor=none;fontColor=default;strokeColor=#A8201A;" parent="1" source="stNJQ5JibclTyAwjcQpj-51" target="-mwh8QnspEmpaRvAdiTf-16" edge="1">
          <mxGeometry relative="1" as="geometry">
            <mxPoint x="620" y="585.5" as="sourcePoint" />
            <mxPoint x="640" y="640" as="targetPoint" />
          </mxGeometry>
        </mxCell>
        <mxCell id="stNJQ5JibclTyAwjcQpj-65" value="" style="endArrow=none;html=1;rounded=0;entryX=0.75;entryY=0;entryDx=0;entryDy=0;exitX=0.346;exitY=1.055;exitDx=0;exitDy=0;exitPerimeter=0;labelBackgroundColor=none;fontColor=default;strokeColor=#A8201A;" parent="1" source="stNJQ5JibclTyAwjcQpj-50" target="-mwh8QnspEmpaRvAdiTf-16" edge="1">
          <mxGeometry relative="1" as="geometry">
            <mxPoint x="710" y="560" as="sourcePoint" />
            <mxPoint x="730" y="580" as="targetPoint" />
          </mxGeometry>
        </mxCell>
        <mxCell id="-mwh8QnspEmpaRvAdiTf-32" value="Description" style="ellipse;whiteSpace=wrap;html=1;align=center;labelBackgroundColor=none;fillColor=#FAE5C7;strokeColor=#0F8B8D;fontColor=#143642;" parent="1" vertex="1">
          <mxGeometry x="740" y="930" width="100" height="40" as="geometry" />
        </mxCell>
        <mxCell id="-mwh8QnspEmpaRvAdiTf-33" value="" style="endArrow=none;html=1;rounded=0;exitX=0.5;exitY=1;exitDx=0;exitDy=0;entryX=0.5;entryY=0;entryDx=0;entryDy=0;labelBackgroundColor=none;fontColor=default;strokeColor=#A8201A;" parent="1" source="-mwh8QnspEmpaRvAdiTf-28" target="-mwh8QnspEmpaRvAdiTf-17" edge="1">
          <mxGeometry relative="1" as="geometry">
            <mxPoint x="860" y="1040" as="sourcePoint" />
            <mxPoint x="1020" y="1040" as="targetPoint" />
          </mxGeometry>
        </mxCell>
        <mxCell id="-mwh8QnspEmpaRvAdiTf-34" value="" style="endArrow=none;html=1;rounded=0;exitX=0.5;exitY=1;exitDx=0;exitDy=0;entryX=0.5;entryY=0;entryDx=0;entryDy=0;labelBackgroundColor=none;fontColor=default;strokeColor=#A8201A;" parent="1" source="-mwh8QnspEmpaRvAdiTf-30" target="-mwh8QnspEmpaRvAdiTf-17" edge="1">
          <mxGeometry relative="1" as="geometry">
            <mxPoint x="860" y="1040" as="sourcePoint" />
            <mxPoint x="1020" y="1040" as="targetPoint" />
          </mxGeometry>
        </mxCell>
        <mxCell id="-mwh8QnspEmpaRvAdiTf-35" value="" style="endArrow=none;html=1;rounded=0;exitX=0.5;exitY=1;exitDx=0;exitDy=0;entryX=0.5;entryY=0;entryDx=0;entryDy=0;labelBackgroundColor=none;fontColor=default;strokeColor=#A8201A;" parent="1" source="-mwh8QnspEmpaRvAdiTf-32" target="-mwh8QnspEmpaRvAdiTf-17" edge="1">
          <mxGeometry relative="1" as="geometry">
            <mxPoint x="860" y="1040" as="sourcePoint" />
            <mxPoint x="1020" y="1040" as="targetPoint" />
          </mxGeometry>
        </mxCell>
        <mxCell id="-mwh8QnspEmpaRvAdiTf-36" value="" style="endArrow=none;html=1;rounded=0;exitX=0.5;exitY=0;exitDx=0;exitDy=0;entryX=0.5;entryY=1;entryDx=0;entryDy=0;labelBackgroundColor=none;fontColor=default;strokeColor=#A8201A;" parent="1" source="-mwh8QnspEmpaRvAdiTf-17" target="-mwh8QnspEmpaRvAdiTf-31" edge="1">
          <mxGeometry relative="1" as="geometry">
            <mxPoint x="740" y="870" as="sourcePoint" />
            <mxPoint x="900" y="870" as="targetPoint" />
          </mxGeometry>
        </mxCell>
        <mxCell id="-mwh8QnspEmpaRvAdiTf-37" value="Price" style="ellipse;whiteSpace=wrap;html=1;align=center;labelBackgroundColor=none;fillColor=#FAE5C7;strokeColor=#0F8B8D;fontColor=#143642;" parent="1" vertex="1">
          <mxGeometry x="810" y="975" width="100" height="40" as="geometry" />
        </mxCell>
        <mxCell id="-mwh8QnspEmpaRvAdiTf-38" value="" style="endArrow=none;html=1;rounded=0;exitX=0.5;exitY=0;exitDx=0;exitDy=0;entryX=0.5;entryY=1;entryDx=0;entryDy=0;labelBackgroundColor=none;fontColor=default;strokeColor=#A8201A;" parent="1" source="-mwh8QnspEmpaRvAdiTf-17" target="-mwh8QnspEmpaRvAdiTf-37" edge="1">
          <mxGeometry relative="1" as="geometry">
            <mxPoint x="860" y="1040" as="sourcePoint" />
            <mxPoint x="840" y="1015" as="targetPoint" />
          </mxGeometry>
        </mxCell>
        <mxCell id="-mwh8QnspEmpaRvAdiTf-39" value="ID" style="ellipse;whiteSpace=wrap;html=1;align=center;fontStyle=4;labelBackgroundColor=none;fillColor=#FAE5C7;strokeColor=#0F8B8D;fontColor=#143642;" parent="1" vertex="1">
          <mxGeometry x="-130" y="1020" width="100" height="40" as="geometry" />
        </mxCell>
        <mxCell id="-mwh8QnspEmpaRvAdiTf-40" value="" style="endArrow=none;html=1;rounded=0;exitX=0.5;exitY=0;exitDx=0;exitDy=0;entryX=0.5;entryY=1;entryDx=0;entryDy=0;labelBackgroundColor=none;fontColor=default;strokeColor=#A8201A;" parent="1" source="-mwh8QnspEmpaRvAdiTf-39" target="-mwh8QnspEmpaRvAdiTf-19" edge="1">
          <mxGeometry relative="1" as="geometry">
            <mxPoint x="-170" y="990" as="sourcePoint" />
            <mxPoint x="-10" y="990" as="targetPoint" />
          </mxGeometry>
        </mxCell>
        <mxCell id="stNJQ5JibclTyAwjcQpj-67" value="SubTotal" style="ellipse;whiteSpace=wrap;html=1;align=center;labelBackgroundColor=none;fillColor=#FAE5C7;strokeColor=#0F8B8D;fontColor=#143642;" parent="1" vertex="1">
          <mxGeometry x="-35" y="404.67" width="100" height="40" as="geometry" />
        </mxCell>
        <mxCell id="-mwh8QnspEmpaRvAdiTf-43" value="" style="endArrow=none;html=1;rounded=0;entryX=0.5;entryY=1;entryDx=0;entryDy=0;exitX=0.5;exitY=1;exitDx=0;exitDy=0;labelBackgroundColor=none;fontColor=default;strokeColor=#A8201A;" parent="1" source="-mwh8QnspEmpaRvAdiTf-14" target="XpqC3ykQgRFOH7uif8_a-1" edge="1">
          <mxGeometry relative="1" as="geometry">
            <mxPoint x="660" y="-29" as="sourcePoint" />
            <mxPoint x="820" y="-29" as="targetPoint" />
          </mxGeometry>
        </mxCell>
        <mxCell id="stNJQ5JibclTyAwjcQpj-68" value="Shipping_Address" style="ellipse;whiteSpace=wrap;html=1;align=center;labelBackgroundColor=none;fillColor=#FAE5C7;strokeColor=#0F8B8D;fontColor=#143642;" parent="1" vertex="1">
          <mxGeometry x="160" y="444.67" width="110" height="40" as="geometry" />
        </mxCell>
        <mxCell id="-mwh8QnspEmpaRvAdiTf-44" value="Method" style="ellipse;whiteSpace=wrap;html=1;align=center;labelBackgroundColor=none;fillColor=#FAE5C7;strokeColor=#0F8B8D;fontColor=#143642;" parent="1" vertex="1">
          <mxGeometry x="-25" y="1020" width="100" height="40" as="geometry" />
        </mxCell>
        <mxCell id="stNJQ5JibclTyAwjcQpj-69" value="" style="endArrow=none;html=1;rounded=0;entryX=0.5;entryY=0;entryDx=0;entryDy=0;exitX=0.746;exitY=0.85;exitDx=0;exitDy=0;exitPerimeter=0;labelBackgroundColor=none;fontColor=default;strokeColor=#A8201A;" parent="1" source="-mwh8QnspEmpaRvAdiTf-29" target="-mwh8QnspEmpaRvAdiTf-18" edge="1">
          <mxGeometry relative="1" as="geometry">
            <mxPoint x="-15" y="494.67" as="sourcePoint" />
            <mxPoint x="5" y="524.67" as="targetPoint" />
          </mxGeometry>
        </mxCell>
        <mxCell id="-mwh8QnspEmpaRvAdiTf-45" value="" style="endArrow=none;html=1;rounded=0;exitX=0.5;exitY=0;exitDx=0;exitDy=0;entryX=0.5;entryY=1;entryDx=0;entryDy=0;labelBackgroundColor=none;fontColor=default;strokeColor=#A8201A;" parent="1" source="-mwh8QnspEmpaRvAdiTf-44" target="-mwh8QnspEmpaRvAdiTf-19" edge="1">
          <mxGeometry relative="1" as="geometry">
            <mxPoint x="-170" y="910" as="sourcePoint" />
            <mxPoint x="-10" y="910" as="targetPoint" />
          </mxGeometry>
        </mxCell>
        <mxCell id="stNJQ5JibclTyAwjcQpj-71" style="edgeStyle=orthogonalEdgeStyle;rounded=0;orthogonalLoop=1;jettySize=auto;html=1;exitX=0.5;exitY=1;exitDx=0;exitDy=0;labelBackgroundColor=none;fontColor=default;strokeColor=#A8201A;" parent="1" edge="1">
          <mxGeometry relative="1" as="geometry">
            <mxPoint x="-25" y="514.67" as="sourcePoint" />
            <mxPoint x="-25" y="514.67" as="targetPoint" />
          </mxGeometry>
        </mxCell>
        <mxCell id="-mwh8QnspEmpaRvAdiTf-29" value="ID" style="ellipse;whiteSpace=wrap;html=1;align=center;fontStyle=4;labelBackgroundColor=none;fillColor=#FAE5C7;strokeColor=#0F8B8D;fontColor=#143642;" parent="1" vertex="1">
          <mxGeometry x="-75" y="444.67" width="100" height="40" as="geometry" />
        </mxCell>
        <mxCell id="-mwh8QnspEmpaRvAdiTf-23" value="F-name" style="ellipse;whiteSpace=wrap;html=1;align=center;labelBackgroundColor=none;fillColor=#FAE5C7;strokeColor=#0F8B8D;fontColor=#143642;" parent="1" vertex="1">
          <mxGeometry x="-80" y="-400" width="100" height="40" as="geometry" />
        </mxCell>
        <mxCell id="stNJQ5JibclTyAwjcQpj-73" value="" style="endArrow=none;html=1;rounded=0;entryX=0.5;entryY=0;entryDx=0;entryDy=0;labelBackgroundColor=none;fontColor=default;strokeColor=#A8201A;" parent="1" source="stNJQ5JibclTyAwjcQpj-67" target="-mwh8QnspEmpaRvAdiTf-18" edge="1">
          <mxGeometry relative="1" as="geometry">
            <mxPoint x="55" y="464.67" as="sourcePoint" />
            <mxPoint x="45" y="514.67" as="targetPoint" />
          </mxGeometry>
        </mxCell>
        <mxCell id="-mwh8QnspEmpaRvAdiTf-49" value="" style="endArrow=none;html=1;rounded=0;entryX=0.5;entryY=1;entryDx=0;entryDy=0;exitX=0.5;exitY=1;exitDx=0;exitDy=0;labelBackgroundColor=none;strokeColor=#A8201A;fontColor=default;" parent="1" source="-mwh8QnspEmpaRvAdiTf-14" target="-mwh8QnspEmpaRvAdiTf-10" edge="1">
          <mxGeometry relative="1" as="geometry">
            <mxPoint x="670" y="161" as="sourcePoint" />
            <mxPoint x="490" y="-59" as="targetPoint" />
          </mxGeometry>
        </mxCell>
        <mxCell id="stNJQ5JibclTyAwjcQpj-74" value="" style="endArrow=none;html=1;rounded=0;entryX=0.5;entryY=0;entryDx=0;entryDy=0;exitX=0.5;exitY=1;exitDx=0;exitDy=0;labelBackgroundColor=none;fontColor=default;strokeColor=#A8201A;" parent="1" source="stNJQ5JibclTyAwjcQpj-68" target="-mwh8QnspEmpaRvAdiTf-18" edge="1">
          <mxGeometry relative="1" as="geometry">
            <mxPoint x="221.4675456000773" y="508.94127940737866" as="sourcePoint" />
            <mxPoint x="195" y="554.67" as="targetPoint" />
          </mxGeometry>
        </mxCell>
        <mxCell id="stNJQ5JibclTyAwjcQpj-76" value="TotalPrice" style="ellipse;whiteSpace=wrap;html=1;align=center;dashed=1;labelBackgroundColor=none;fillColor=#FAE5C7;strokeColor=#0F8B8D;fontColor=#143642;" parent="1" vertex="1">
          <mxGeometry x="75" y="404.67" width="100" height="40" as="geometry" />
        </mxCell>
        <mxCell id="stNJQ5JibclTyAwjcQpj-77" value="" style="endArrow=none;html=1;rounded=0;entryX=0.398;entryY=1.055;entryDx=0;entryDy=0;entryPerimeter=0;exitX=0.5;exitY=0;exitDx=0;exitDy=0;labelBackgroundColor=none;fontColor=default;strokeColor=#A8201A;" parent="1" source="-mwh8QnspEmpaRvAdiTf-18" target="stNJQ5JibclTyAwjcQpj-76" edge="1">
          <mxGeometry relative="1" as="geometry">
            <mxPoint x="105" y="494.67" as="sourcePoint" />
            <mxPoint x="265" y="494.67" as="targetPoint" />
          </mxGeometry>
        </mxCell>
        <mxCell id="stNJQ5JibclTyAwjcQpj-78" value="Date" style="ellipse;whiteSpace=wrap;html=1;align=center;labelBackgroundColor=none;fillColor=#FAE5C7;strokeColor=#0F8B8D;fontColor=#143642;" parent="1" vertex="1">
          <mxGeometry x="180" y="360" width="100" height="40" as="geometry" />
        </mxCell>
        <mxCell id="stNJQ5JibclTyAwjcQpj-79" value="" style="endArrow=none;html=1;rounded=0;exitX=0.5;exitY=1;exitDx=0;exitDy=0;labelBackgroundColor=none;fontColor=default;strokeColor=#A8201A;" parent="1" source="stNJQ5JibclTyAwjcQpj-78" edge="1">
          <mxGeometry relative="1" as="geometry">
            <mxPoint x="-55" y="444.67" as="sourcePoint" />
            <mxPoint x="65" y="525.67" as="targetPoint" />
          </mxGeometry>
        </mxCell>
        <mxCell id="stNJQ5JibclTyAwjcQpj-80" value="" style="endArrow=none;html=1;rounded=0;exitX=0.674;exitY=0.191;exitDx=0;exitDy=0;entryX=0.25;entryY=1;entryDx=0;entryDy=0;exitPerimeter=0;labelBackgroundColor=none;fontColor=default;strokeColor=#A8201A;" parent="1" source="stNJQ5JibclTyAwjcQpj-81" target="-mwh8QnspEmpaRvAdiTf-19" edge="1">
          <mxGeometry relative="1" as="geometry">
            <mxPoint x="-160" y="1010" as="sourcePoint" />
            <mxPoint x="-110" y="970" as="targetPoint" />
          </mxGeometry>
        </mxCell>
        <mxCell id="stNJQ5JibclTyAwjcQpj-81" value="TransactionID" style="ellipse;whiteSpace=wrap;html=1;align=center;labelBackgroundColor=none;fillColor=#FAE5C7;strokeColor=#0F8B8D;fontColor=#143642;" parent="1" vertex="1">
          <mxGeometry x="-260" y="1020" width="100" height="40" as="geometry" />
        </mxCell>
        <mxCell id="stNJQ5JibclTyAwjcQpj-82" value="Own" style="shape=rhombus;perimeter=rhombusPerimeter;whiteSpace=wrap;html=1;align=center;labelBackgroundColor=none;fillColor=#FAE5C7;strokeColor=#0F8B8D;fontColor=#143642;" parent="1" vertex="1">
          <mxGeometry x="330" y="70" width="120" height="60" as="geometry" />
        </mxCell>
        <mxCell id="kYmjBmRr4t5gehra3v75-2" value="Contain" style="shape=rhombus;perimeter=rhombusPerimeter;whiteSpace=wrap;html=1;align=center;rotation=0;labelBackgroundColor=none;fillColor=#FAE5C7;strokeColor=#0F8B8D;fontColor=#143642;" parent="1" vertex="1">
          <mxGeometry x="650" y="830" width="120" height="60" as="geometry" />
        </mxCell>
        <mxCell id="kYmjBmRr4t5gehra3v75-4" value="" style="shape=link;html=1;rounded=0;entryX=0.5;entryY=1;entryDx=0;entryDy=0;exitX=0.5;exitY=0;exitDx=0;exitDy=0;labelBackgroundColor=none;strokeColor=#A8201A;fontColor=default;" parent="1" source="kYmjBmRr4t5gehra3v75-2" target="-mwh8QnspEmpaRvAdiTf-16" edge="1">
          <mxGeometry relative="1" as="geometry">
            <mxPoint x="709" y="820" as="sourcePoint" />
            <mxPoint x="710" y="670" as="targetPoint" />
          </mxGeometry>
        </mxCell>
        <mxCell id="kYmjBmRr4t5gehra3v75-5" value="1" style="resizable=0;html=1;whiteSpace=wrap;align=right;verticalAlign=bottom;labelBackgroundColor=none;fillColor=#FAE5C7;strokeColor=#0F8B8D;fontColor=#143642;" parent="kYmjBmRr4t5gehra3v75-4" connectable="0" vertex="1">
          <mxGeometry x="1" relative="1" as="geometry">
            <mxPoint x="-9" y="20" as="offset" />
          </mxGeometry>
        </mxCell>
        <mxCell id="stNJQ5JibclTyAwjcQpj-89" value="" style="shape=link;html=1;rounded=0;exitX=1;exitY=0.5;exitDx=0;exitDy=0;labelBackgroundColor=none;fontColor=default;strokeColor=#A8201A;" parent="1" source="stNJQ5JibclTyAwjcQpj-82" target="-mwh8QnspEmpaRvAdiTf-14" edge="1">
          <mxGeometry relative="1" as="geometry">
            <mxPoint x="410" y="181" as="sourcePoint" />
            <mxPoint x="600" y="180.5" as="targetPoint" />
          </mxGeometry>
        </mxCell>
        <mxCell id="kYmjBmRr4t5gehra3v75-7" value="" style="shape=link;html=1;rounded=0;labelBackgroundColor=none;fontColor=default;strokeColor=#A8201A;" parent="1" source="kYmjBmRr4t5gehra3v75-2" edge="1">
          <mxGeometry relative="1" as="geometry">
            <mxPoint x="710" y="922.5" as="sourcePoint" />
            <mxPoint x="710" y="1050" as="targetPoint" />
            <Array as="points">
              <mxPoint x="710" y="987.5" />
            </Array>
          </mxGeometry>
        </mxCell>
        <mxCell id="kYmjBmRr4t5gehra3v75-8" value="N" style="resizable=0;html=1;whiteSpace=wrap;align=right;verticalAlign=bottom;labelBackgroundColor=none;fillColor=#FAE5C7;strokeColor=#0F8B8D;fontColor=#143642;" parent="kYmjBmRr4t5gehra3v75-7" connectable="0" vertex="1">
          <mxGeometry x="1" relative="1" as="geometry">
            <mxPoint x="20" y="-20" as="offset" />
          </mxGeometry>
        </mxCell>
        <mxCell id="-mwh8QnspEmpaRvAdiTf-14" value="RESTAURANT" style="whiteSpace=wrap;html=1;align=center;direction=west;labelBackgroundColor=none;fillColor=#FAE5C7;strokeColor=#0F8B8D;fontColor=#143642;" parent="1" vertex="1">
          <mxGeometry x="660" y="152" width="100" height="40" as="geometry" />
        </mxCell>
        <mxCell id="stNJQ5JibclTyAwjcQpj-91" value="" style="endArrow=none;html=1;rounded=0;entryX=0;entryY=0.5;entryDx=0;entryDy=0;exitX=0.5;exitY=1;exitDx=0;exitDy=0;labelBackgroundColor=none;fontColor=default;strokeColor=#A8201A;" parent="1" source="LDHJJX_q3aMVxdRy0C8B-26" target="stNJQ5JibclTyAwjcQpj-82" edge="1">
          <mxGeometry relative="1" as="geometry">
            <mxPoint x="70" y="50" as="sourcePoint" />
            <mxPoint x="351.25" y="350" as="targetPoint" />
          </mxGeometry>
        </mxCell>
        <mxCell id="stNJQ5JibclTyAwjcQpj-93" value="Has" style="shape=rhombus;perimeter=rhombusPerimeter;whiteSpace=wrap;html=1;align=center;labelBackgroundColor=none;fillColor=#FAE5C7;strokeColor=#0F8B8D;fontColor=#143642;" parent="1" vertex="1">
          <mxGeometry x="650" y="370" width="120" height="60" as="geometry" />
        </mxCell>
        <mxCell id="kYmjBmRr4t5gehra3v75-11" value="Pay" style="shape=rhombus;perimeter=rhombusPerimeter;whiteSpace=wrap;html=1;align=center;labelBackgroundColor=none;fillColor=#FAE5C7;strokeColor=#0F8B8D;fontColor=#143642;" parent="1" vertex="1">
          <mxGeometry x="-40" y="780" width="120" height="60" as="geometry" />
        </mxCell>
        <mxCell id="stNJQ5JibclTyAwjcQpj-94" value="" style="shape=link;html=1;rounded=0;exitX=0.5;exitY=1;exitDx=0;exitDy=0;labelBackgroundColor=none;fontColor=default;strokeColor=#A8201A;" parent="1" source="stNJQ5JibclTyAwjcQpj-93" target="-mwh8QnspEmpaRvAdiTf-16" edge="1">
          <mxGeometry relative="1" as="geometry">
            <mxPoint x="520" y="470" as="sourcePoint" />
            <mxPoint x="670" y="480" as="targetPoint" />
          </mxGeometry>
        </mxCell>
        <mxCell id="stNJQ5JibclTyAwjcQpj-95" value="N" style="resizable=0;html=1;whiteSpace=wrap;align=right;verticalAlign=bottom;labelBackgroundColor=none;fillColor=#FAE5C7;strokeColor=#0F8B8D;fontColor=#143642;" parent="stNJQ5JibclTyAwjcQpj-94" connectable="0" vertex="1">
          <mxGeometry x="1" relative="1" as="geometry">
            <mxPoint x="-10" as="offset" />
          </mxGeometry>
        </mxCell>
        <mxCell id="kYmjBmRr4t5gehra3v75-12" value="" style="shape=link;html=1;rounded=0;entryX=0.5;entryY=0;entryDx=0;entryDy=0;labelBackgroundColor=none;fontColor=default;strokeColor=#A8201A;" parent="1" source="kYmjBmRr4t5gehra3v75-11" target="-mwh8QnspEmpaRvAdiTf-19" edge="1">
          <mxGeometry relative="1" as="geometry">
            <mxPoint x="-100" y="830" as="sourcePoint" />
            <mxPoint x="60" y="830" as="targetPoint" />
          </mxGeometry>
        </mxCell>
        <mxCell id="kYmjBmRr4t5gehra3v75-13" value="1" style="resizable=0;html=1;whiteSpace=wrap;align=right;verticalAlign=bottom;labelBackgroundColor=none;fillColor=#FAE5C7;strokeColor=#0F8B8D;fontColor=#143642;" parent="kYmjBmRr4t5gehra3v75-12" connectable="0" vertex="1">
          <mxGeometry x="1" relative="1" as="geometry">
            <mxPoint x="-10" y="-10" as="offset" />
          </mxGeometry>
        </mxCell>
        <mxCell id="stNJQ5JibclTyAwjcQpj-102" value="" style="shape=link;html=1;rounded=0;exitX=0.5;exitY=0;exitDx=0;exitDy=0;entryX=0.5;entryY=0;entryDx=0;entryDy=0;labelBackgroundColor=none;fontColor=default;strokeColor=#A8201A;" parent="1" source="stNJQ5JibclTyAwjcQpj-93" target="-mwh8QnspEmpaRvAdiTf-14" edge="1">
          <mxGeometry relative="1" as="geometry">
            <mxPoint x="669" y="311" as="sourcePoint" />
            <mxPoint x="680" y="200" as="targetPoint" />
          </mxGeometry>
        </mxCell>
        <mxCell id="stNJQ5JibclTyAwjcQpj-103" value="N" style="resizable=0;html=1;whiteSpace=wrap;align=right;verticalAlign=bottom;labelBackgroundColor=none;fillColor=#FAE5C7;strokeColor=#0F8B8D;fontColor=#143642;" parent="stNJQ5JibclTyAwjcQpj-102" connectable="0" vertex="1">
          <mxGeometry x="1" relative="1" as="geometry">
            <mxPoint x="-10" y="19" as="offset" />
          </mxGeometry>
        </mxCell>
        <mxCell id="izAPadFx2FFyrEernHef-27" value="" style="shape=link;html=1;rounded=0;entryX=0.5;entryY=1;entryDx=0;entryDy=0;exitX=0.5;exitY=0;exitDx=0;exitDy=0;labelBackgroundColor=none;fontColor=default;strokeColor=#A8201A;" parent="1" source="kYmjBmRr4t5gehra3v75-11" target="-mwh8QnspEmpaRvAdiTf-18" edge="1">
          <mxGeometry relative="1" as="geometry">
            <mxPoint x="30" y="850" as="sourcePoint" />
            <mxPoint x="20" y="940" as="targetPoint" />
          </mxGeometry>
        </mxCell>
        <mxCell id="izAPadFx2FFyrEernHef-28" value="1" style="resizable=0;html=1;whiteSpace=wrap;align=right;verticalAlign=bottom;labelBackgroundColor=none;fillColor=#FAE5C7;strokeColor=#0F8B8D;fontColor=#143642;" parent="izAPadFx2FFyrEernHef-27" connectable="0" vertex="1">
          <mxGeometry x="1" relative="1" as="geometry">
            <mxPoint x="-10" y="25" as="offset" />
          </mxGeometry>
        </mxCell>
        <mxCell id="stNJQ5JibclTyAwjcQpj-105" value="Make" style="shape=rhombus;perimeter=rhombusPerimeter;whiteSpace=wrap;html=1;align=center;labelBackgroundColor=none;fillColor=#FAE5C7;strokeColor=#0F8B8D;fontColor=#143642;" parent="1" vertex="1">
          <mxGeometry x="15" y="264.67" width="120" height="60" as="geometry" />
        </mxCell>
        <mxCell id="xNQtXfXYGV4ex95Jq6Uo-1" value="Use" style="shape=rhombus;perimeter=rhombusPerimeter;whiteSpace=wrap;html=1;align=center;labelBackgroundColor=none;fillColor=#FAE5C7;strokeColor=#0F8B8D;fontColor=#143642;" parent="1" vertex="1">
          <mxGeometry x="-260" y="590" width="120" height="60" as="geometry" />
        </mxCell>
        <mxCell id="stNJQ5JibclTyAwjcQpj-106" value="" style="endArrow=none;html=1;rounded=0;labelBackgroundColor=none;fontColor=default;strokeColor=#A8201A;" parent="1" target="LDHJJX_q3aMVxdRy0C8B-28" edge="1">
          <mxGeometry relative="1" as="geometry">
            <mxPoint x="80" y="266" as="sourcePoint" />
            <mxPoint x="70" y="60" as="targetPoint" />
          </mxGeometry>
        </mxCell>
        <mxCell id="stNJQ5JibclTyAwjcQpj-107" value="1" style="resizable=0;html=1;whiteSpace=wrap;align=right;verticalAlign=bottom;labelBackgroundColor=none;fillColor=#FAE5C7;strokeColor=#0F8B8D;fontColor=#143642;" parent="stNJQ5JibclTyAwjcQpj-106" connectable="0" vertex="1">
          <mxGeometry x="1" relative="1" as="geometry">
            <mxPoint x="144" y="20" as="offset" />
          </mxGeometry>
        </mxCell>
        <mxCell id="NRucx3k98AE8DFw6DZ2k-6" value="1" style="resizable=0;html=1;whiteSpace=wrap;align=right;verticalAlign=bottom;labelBackgroundColor=none;fillColor=#FAE5C7;strokeColor=#0F8B8D;fontColor=#143642;" parent="stNJQ5JibclTyAwjcQpj-106" connectable="0" vertex="1">
          <mxGeometry x="1" relative="1" as="geometry">
            <mxPoint x="-10" y="20" as="offset" />
          </mxGeometry>
        </mxCell>
        <mxCell id="xNQtXfXYGV4ex95Jq6Uo-6" value="" style="endArrow=none;html=1;rounded=0;entryX=1;entryY=0.5;entryDx=0;entryDy=0;exitX=0;exitY=0.5;exitDx=0;exitDy=0;labelBackgroundColor=none;fontColor=default;strokeColor=#A8201A;" parent="1" source="xNQtXfXYGV4ex95Jq6Uo-1" target="-mwh8QnspEmpaRvAdiTf-15" edge="1">
          <mxGeometry relative="1" as="geometry">
            <mxPoint x="-210" y="700" as="sourcePoint" />
            <mxPoint x="-200" y="680" as="targetPoint" />
          </mxGeometry>
        </mxCell>
        <mxCell id="xNQtXfXYGV4ex95Jq6Uo-7" value="1" style="resizable=0;html=1;whiteSpace=wrap;align=right;verticalAlign=bottom;labelBackgroundColor=none;fillColor=#FAE5C7;strokeColor=#0F8B8D;fontColor=#143642;" parent="xNQtXfXYGV4ex95Jq6Uo-6" connectable="0" vertex="1">
          <mxGeometry x="1" relative="1" as="geometry">
            <mxPoint x="20" as="offset" />
          </mxGeometry>
        </mxCell>
        <mxCell id="stNJQ5JibclTyAwjcQpj-109" value="" style="shape=link;html=1;rounded=0;entryX=0.5;entryY=0;entryDx=0;entryDy=0;exitX=0.5;exitY=1;exitDx=0;exitDy=0;labelBackgroundColor=none;fontColor=default;strokeColor=#A8201A;" parent="1" source="stNJQ5JibclTyAwjcQpj-105" target="-mwh8QnspEmpaRvAdiTf-18" edge="1">
          <mxGeometry relative="1" as="geometry">
            <mxPoint x="63.81999999999999" y="374.67" as="sourcePoint" />
            <mxPoint x="64" y="514.67" as="targetPoint" />
          </mxGeometry>
        </mxCell>
        <mxCell id="stNJQ5JibclTyAwjcQpj-110" value="N" style="resizable=0;html=1;whiteSpace=wrap;align=right;verticalAlign=bottom;labelBackgroundColor=none;fillColor=#FAE5C7;strokeColor=#0F8B8D;fontColor=#143642;" parent="stNJQ5JibclTyAwjcQpj-109" connectable="0" vertex="1">
          <mxGeometry x="1" relative="1" as="geometry">
            <mxPoint x="20" y="-30" as="offset" />
          </mxGeometry>
        </mxCell>
        <mxCell id="xNQtXfXYGV4ex95Jq6Uo-10" value="" style="endArrow=none;html=1;rounded=0;entryX=0;entryY=0.75;entryDx=0;entryDy=0;exitX=1;exitY=0.5;exitDx=0;exitDy=0;labelBackgroundColor=none;strokeColor=#A8201A;fontColor=default;" parent="1" source="xNQtXfXYGV4ex95Jq6Uo-1" target="-mwh8QnspEmpaRvAdiTf-18" edge="1">
          <mxGeometry relative="1" as="geometry">
            <mxPoint x="50" y="510" as="sourcePoint" />
            <mxPoint x="210" y="510" as="targetPoint" />
          </mxGeometry>
        </mxCell>
        <mxCell id="xNQtXfXYGV4ex95Jq6Uo-11" value="N" style="resizable=0;html=1;whiteSpace=wrap;align=right;verticalAlign=bottom;labelBackgroundColor=none;fillColor=#FAE5C7;strokeColor=#0F8B8D;fontColor=#143642;" parent="xNQtXfXYGV4ex95Jq6Uo-10" connectable="0" vertex="1">
          <mxGeometry x="1" relative="1" as="geometry">
            <mxPoint x="-8" y="30" as="offset" />
          </mxGeometry>
        </mxCell>
        <mxCell id="5jPGRMZMEF2SBlHhPyYl-5" value="" style="endArrow=none;html=1;rounded=0;exitX=0.5;exitY=0;exitDx=0;exitDy=0;entryX=0.4;entryY=0.928;entryDx=0;entryDy=0;entryPerimeter=0;labelBackgroundColor=none;strokeColor=#A8201A;fontColor=default;" parent="1" source="5jPGRMZMEF2SBlHhPyYl-1" target="LDHJJX_q3aMVxdRy0C8B-24" edge="1">
          <mxGeometry relative="1" as="geometry">
            <mxPoint x="-394.9933055091817" y="524.0083472454089" as="sourcePoint" />
            <mxPoint x="-70" y="55" as="targetPoint" />
          </mxGeometry>
        </mxCell>
        <mxCell id="5jPGRMZMEF2SBlHhPyYl-6" value="1" style="resizable=0;html=1;whiteSpace=wrap;align=right;verticalAlign=bottom;labelBackgroundColor=none;fillColor=#FAE5C7;strokeColor=#0F8B8D;fontColor=#143642;" parent="5jPGRMZMEF2SBlHhPyYl-5" connectable="0" vertex="1">
          <mxGeometry x="1" relative="1" as="geometry">
            <mxPoint x="-12" y="26" as="offset" />
          </mxGeometry>
        </mxCell>
        <mxCell id="LDHJJX_q3aMVxdRy0C8B-2" value="Date" style="ellipse;whiteSpace=wrap;html=1;align=center;labelBackgroundColor=none;fillColor=#FAE5C7;strokeColor=#0F8B8D;fontColor=#143642;" parent="1" vertex="1">
          <mxGeometry x="80" y="1030" width="100" height="40" as="geometry" />
        </mxCell>
        <mxCell id="LDHJJX_q3aMVxdRy0C8B-3" value="" style="endArrow=none;html=1;rounded=0;exitX=0.329;exitY=0.119;exitDx=0;exitDy=0;exitPerimeter=0;labelBackgroundColor=none;strokeColor=#A8201A;fontColor=default;" parent="1" source="LDHJJX_q3aMVxdRy0C8B-2" edge="1">
          <mxGeometry relative="1" as="geometry">
            <mxPoint x="190" y="860" as="sourcePoint" />
            <mxPoint x="30" y="970" as="targetPoint" />
          </mxGeometry>
        </mxCell>
        <mxCell id="LDHJJX_q3aMVxdRy0C8B-4" value="&amp;nbsp;Arrive_Date" style="ellipse;whiteSpace=wrap;html=1;align=center;labelBackgroundColor=none;fillColor=#FAE5C7;strokeColor=#0F8B8D;fontColor=#143642;" parent="1" vertex="1">
          <mxGeometry x="-370" y="400" width="100" height="40" as="geometry" />
        </mxCell>
        <mxCell id="LDHJJX_q3aMVxdRy0C8B-5" value="Shipping_Date" style="ellipse;whiteSpace=wrap;html=1;align=center;labelBackgroundColor=none;fillColor=#FAE5C7;strokeColor=#0F8B8D;fontColor=#143642;" parent="1" vertex="1">
          <mxGeometry x="-280" y="360" width="100" height="40" as="geometry" />
        </mxCell>
        <mxCell id="LDHJJX_q3aMVxdRy0C8B-6" value="" style="endArrow=none;html=1;rounded=0;entryX=0.5;entryY=1;entryDx=0;entryDy=0;exitX=0;exitY=0.5;exitDx=0;exitDy=0;labelBackgroundColor=none;fontColor=default;strokeColor=#A8201A;" parent="1" source="5jPGRMZMEF2SBlHhPyYl-1" target="LDHJJX_q3aMVxdRy0C8B-4" edge="1">
          <mxGeometry relative="1" as="geometry">
            <mxPoint x="295" y="514.67" as="sourcePoint" />
            <mxPoint x="455" y="514.67" as="targetPoint" />
          </mxGeometry>
        </mxCell>
        <mxCell id="LDHJJX_q3aMVxdRy0C8B-7" value="" style="endArrow=none;html=1;rounded=0;exitX=0;exitY=0.5;exitDx=0;exitDy=0;labelBackgroundColor=none;fontColor=default;entryX=0.5;entryY=1;entryDx=0;entryDy=0;strokeColor=#A8201A;" parent="1" source="5jPGRMZMEF2SBlHhPyYl-1" target="LDHJJX_q3aMVxdRy0C8B-5" edge="1">
          <mxGeometry relative="1" as="geometry">
            <mxPoint x="295" y="514.67" as="sourcePoint" />
            <mxPoint x="-190" y="370" as="targetPoint" />
          </mxGeometry>
        </mxCell>
        <mxCell id="5jPGRMZMEF2SBlHhPyYl-1" value="Deliver" style="shape=rhombus;perimeter=rhombusPerimeter;whiteSpace=wrap;html=1;align=center;labelBackgroundColor=none;fillColor=#FAE5C7;strokeColor=#0F8B8D;fontColor=#143642;" parent="1" vertex="1">
          <mxGeometry x="-220" y="424.67" width="120" height="60" as="geometry" />
        </mxCell>
        <mxCell id="LDHJJX_q3aMVxdRy0C8B-11" value="" style="shape=link;html=1;rounded=0;exitX=0.5;exitY=1;exitDx=0;exitDy=0;entryX=0;entryY=0.5;entryDx=0;entryDy=0;labelBackgroundColor=none;fontColor=default;strokeColor=#A8201A;" parent="1" source="5jPGRMZMEF2SBlHhPyYl-1" target="-mwh8QnspEmpaRvAdiTf-18" edge="1">
          <mxGeometry relative="1" as="geometry">
            <mxPoint x="-255" y="434.67" as="sourcePoint" />
            <mxPoint x="15" y="535" as="targetPoint" />
          </mxGeometry>
        </mxCell>
        <mxCell id="LDHJJX_q3aMVxdRy0C8B-12" value="N" style="resizable=0;html=1;whiteSpace=wrap;align=right;verticalAlign=bottom;labelBackgroundColor=none;fillColor=#FAE5C7;strokeColor=#0F8B8D;fontColor=#143642;" parent="LDHJJX_q3aMVxdRy0C8B-11" connectable="0" vertex="1">
          <mxGeometry x="1" relative="1" as="geometry">
            <mxPoint x="-5" y="-5" as="offset" />
          </mxGeometry>
        </mxCell>
        <mxCell id="LDHJJX_q3aMVxdRy0C8B-15" value="Has&amp;nbsp;" style="shape=rhombus;perimeter=rhombusPerimeter;whiteSpace=wrap;html=1;align=center;labelBackgroundColor=none;fillColor=#FAE5C7;strokeColor=#0F8B8D;fontColor=#143642;" parent="1" vertex="1">
          <mxGeometry x="250" y="680" width="120" height="60" as="geometry" />
        </mxCell>
        <mxCell id="LDHJJX_q3aMVxdRy0C8B-19" value="" style="shape=link;html=1;rounded=0;entryX=1;entryY=1;entryDx=0;entryDy=0;exitX=0;exitY=0.5;exitDx=0;exitDy=0;labelBackgroundColor=none;fontColor=default;strokeColor=#A8201A;" parent="1" source="LDHJJX_q3aMVxdRy0C8B-15" target="-mwh8QnspEmpaRvAdiTf-18" edge="1">
          <mxGeometry relative="1" as="geometry">
            <mxPoint x="230" y="710" as="sourcePoint" />
            <mxPoint x="190" y="600" as="targetPoint" />
          </mxGeometry>
        </mxCell>
        <mxCell id="LDHJJX_q3aMVxdRy0C8B-20" value="N" style="resizable=0;html=1;whiteSpace=wrap;align=right;verticalAlign=bottom;labelBackgroundColor=none;fillColor=#FAE5C7;strokeColor=#0F8B8D;fontColor=#143642;" parent="LDHJJX_q3aMVxdRy0C8B-19" connectable="0" vertex="1">
          <mxGeometry x="1" relative="1" as="geometry">
            <mxPoint x="20" as="offset" />
          </mxGeometry>
        </mxCell>
        <mxCell id="LDHJJX_q3aMVxdRy0C8B-21" value="" style="endArrow=none;html=1;rounded=0;entryX=0;entryY=0.75;entryDx=0;entryDy=0;exitX=1;exitY=0.5;exitDx=0;exitDy=0;labelBackgroundColor=none;fontColor=default;strokeColor=#A8201A;" parent="1" source="LDHJJX_q3aMVxdRy0C8B-15" target="-mwh8QnspEmpaRvAdiTf-17" edge="1">
          <mxGeometry relative="1" as="geometry">
            <mxPoint x="220" y="820" as="sourcePoint" />
            <mxPoint x="330" y="930" as="targetPoint" />
            <Array as="points">
              <mxPoint x="370" y="1080" />
            </Array>
          </mxGeometry>
        </mxCell>
        <mxCell id="LDHJJX_q3aMVxdRy0C8B-22" value="N" style="resizable=0;html=1;whiteSpace=wrap;align=right;verticalAlign=bottom;labelBackgroundColor=none;fillColor=#FAE5C7;strokeColor=#0F8B8D;fontColor=#143642;" parent="LDHJJX_q3aMVxdRy0C8B-21" connectable="0" vertex="1">
          <mxGeometry x="1" relative="1" as="geometry">
            <mxPoint as="offset" />
          </mxGeometry>
        </mxCell>
        <mxCell id="LDHJJX_q3aMVxdRy0C8B-24" value="Delivery" style="whiteSpace=wrap;html=1;align=center;labelBackgroundColor=none;fillColor=#FAE5C7;strokeColor=#0F8B8D;fontColor=#143642;" parent="1" vertex="1">
          <mxGeometry x="-100" y="10" width="100" height="40" as="geometry" />
        </mxCell>
        <mxCell id="LDHJJX_q3aMVxdRy0C8B-25" value="Admin" style="whiteSpace=wrap;html=1;align=center;labelBackgroundColor=none;fillColor=#FAE5C7;strokeColor=#0F8B8D;fontColor=#143642;" parent="1" vertex="1">
          <mxGeometry x="-250" y="10" width="100" height="40" as="geometry" />
        </mxCell>
        <mxCell id="LDHJJX_q3aMVxdRy0C8B-26" value="Owner" style="whiteSpace=wrap;html=1;align=center;labelBackgroundColor=none;fillColor=#FAE5C7;strokeColor=#0F8B8D;fontColor=#143642;" parent="1" vertex="1">
          <mxGeometry x="170" y="10" width="100" height="40" as="geometry" />
        </mxCell>
        <mxCell id="LDHJJX_q3aMVxdRy0C8B-28" value="Customer" style="whiteSpace=wrap;html=1;align=center;labelBackgroundColor=none;fillColor=#FAE5C7;strokeColor=#0F8B8D;fontColor=#143642;" parent="1" vertex="1">
          <mxGeometry x="30" y="10" width="100" height="40" as="geometry" />
        </mxCell>
        <mxCell id="LDHJJX_q3aMVxdRy0C8B-29" value="d" style="ellipse;whiteSpace=wrap;html=1;aspect=fixed;labelBackgroundColor=none;fillColor=#FAE5C7;strokeColor=#0F8B8D;fontColor=#143642;" parent="1" vertex="1">
          <mxGeometry x="-20" y="-90" width="20" height="20" as="geometry" />
        </mxCell>
        <mxCell id="LDHJJX_q3aMVxdRy0C8B-30" value="" style="shape=link;html=1;rounded=0;entryX=0.5;entryY=1;entryDx=0;entryDy=0;exitX=0.5;exitY=0;exitDx=0;exitDy=0;labelBackgroundColor=none;fontColor=default;strokeColor=#A8201A;" parent="1" source="LDHJJX_q3aMVxdRy0C8B-29" target="-mwh8QnspEmpaRvAdiTf-20" edge="1">
          <mxGeometry relative="1" as="geometry">
            <mxPoint x="-150" y="-40" as="sourcePoint" />
            <mxPoint x="10" y="-40" as="targetPoint" />
          </mxGeometry>
        </mxCell>
        <mxCell id="LDHJJX_q3aMVxdRy0C8B-35" value="" style="endArrow=none;html=1;rounded=0;entryX=0.5;entryY=1;entryDx=0;entryDy=0;exitX=0.382;exitY=0.015;exitDx=0;exitDy=0;exitPerimeter=0;labelBackgroundColor=none;fontColor=default;strokeColor=#A8201A;" parent="1" source="LDHJJX_q3aMVxdRy0C8B-24" target="LDHJJX_q3aMVxdRy0C8B-29" edge="1">
          <mxGeometry relative="1" as="geometry">
            <mxPoint x="-50" as="sourcePoint" />
            <mxPoint x="-90" y="-50" as="targetPoint" />
          </mxGeometry>
        </mxCell>
        <mxCell id="LDHJJX_q3aMVxdRy0C8B-37" value="" style="endArrow=none;html=1;rounded=0;entryX=0;entryY=0.5;entryDx=0;entryDy=0;labelBackgroundColor=none;fontColor=default;strokeColor=#A8201A;" parent="1" target="LDHJJX_q3aMVxdRy0C8B-29" edge="1">
          <mxGeometry relative="1" as="geometry">
            <mxPoint x="-210" y="10" as="sourcePoint" />
            <mxPoint x="-150" y="-50" as="targetPoint" />
            <Array as="points">
              <mxPoint x="-210" y="10" />
            </Array>
          </mxGeometry>
        </mxCell>
        <mxCell id="LDHJJX_q3aMVxdRy0C8B-38" value="" style="endArrow=none;html=1;rounded=0;entryX=1;entryY=0.5;entryDx=0;entryDy=0;labelBackgroundColor=none;fontColor=default;strokeColor=#A8201A;" parent="1" source="w0SyWzm86nU4_tot4UUk-42" target="LDHJJX_q3aMVxdRy0C8B-29" edge="1">
          <mxGeometry relative="1" as="geometry">
            <mxPoint x="220" y="11" as="sourcePoint" />
            <mxPoint x="80" y="-69" as="targetPoint" />
          </mxGeometry>
        </mxCell>
        <mxCell id="LDHJJX_q3aMVxdRy0C8B-39" value="" style="endArrow=none;html=1;rounded=0;entryX=1;entryY=1;entryDx=0;entryDy=0;exitX=0.5;exitY=0;exitDx=0;exitDy=0;labelBackgroundColor=none;fontColor=default;strokeColor=#A8201A;" parent="1" source="LDHJJX_q3aMVxdRy0C8B-28" target="LDHJJX_q3aMVxdRy0C8B-29" edge="1">
          <mxGeometry relative="1" as="geometry">
            <mxPoint x="70" y="-10" as="sourcePoint" />
            <mxPoint y="-60" as="targetPoint" />
          </mxGeometry>
        </mxCell>
        <mxCell id="w0SyWzm86nU4_tot4UUk-11" value="" style="shape=requiredInterface;html=1;verticalLabelPosition=bottom;sketch=0;direction=south;rotation=35;labelBackgroundColor=none;fillColor=#FAE5C7;strokeColor=#0F8B8D;fontColor=#143642;" parent="1" vertex="1">
          <mxGeometry x="-45" y="-30.03" width="15" height="10" as="geometry" />
        </mxCell>
        <mxCell id="w0SyWzm86nU4_tot4UUk-15" value="" style="shape=requiredInterface;html=1;verticalLabelPosition=bottom;sketch=0;direction=south;rotation=60;labelBackgroundColor=none;fillColor=#FAE5C7;strokeColor=#0F8B8D;fontColor=#143642;" parent="1" vertex="1">
          <mxGeometry x="-119.99999999999999" y="-40" width="15" height="9.97" as="geometry" />
        </mxCell>
        <mxCell id="w0SyWzm86nU4_tot4UUk-19" value="" style="shape=requiredInterface;html=1;verticalLabelPosition=bottom;sketch=0;direction=south;rotation=-30;labelBackgroundColor=none;fillColor=#FAE5C7;strokeColor=#0F8B8D;fontColor=#143642;" parent="1" vertex="1">
          <mxGeometry x="40.37" y="-29.43" width="15" height="10.05" as="geometry" />
        </mxCell>
        <mxCell id="w0SyWzm86nU4_tot4UUk-44" value="" style="endArrow=none;html=1;rounded=0;entryX=1;entryY=0.5;entryDx=0;entryDy=0;labelBackgroundColor=none;fontColor=default;strokeColor=#A8201A;" parent="1" target="w0SyWzm86nU4_tot4UUk-42" edge="1">
          <mxGeometry relative="1" as="geometry">
            <mxPoint x="200" y="10" as="sourcePoint" />
            <mxPoint y="-80" as="targetPoint" />
          </mxGeometry>
        </mxCell>
        <mxCell id="w0SyWzm86nU4_tot4UUk-42" value="" style="shape=requiredInterface;html=1;verticalLabelPosition=bottom;sketch=0;direction=east;rotation=35;labelBackgroundColor=none;fillColor=#FAE5C7;strokeColor=#0F8B8D;fontColor=#143642;" parent="1" vertex="1">
          <mxGeometry x="105" y="-42.510000000000005" width="5" height="15" as="geometry" />
        </mxCell>
        <mxCell id="w0SyWzm86nU4_tot4UUk-46" value="" style="endArrow=none;html=1;rounded=0;entryX=0.418;entryY=1.117;entryDx=0;entryDy=0;entryPerimeter=0;exitX=0.5;exitY=0;exitDx=0;exitDy=0;labelBackgroundColor=none;fontColor=default;strokeColor=#A8201A;" parent="1" source="w0SyWzm86nU4_tot4UUk-48" edge="1">
          <mxGeometry relative="1" as="geometry">
            <mxPoint x="-280" y="290" as="sourcePoint" />
            <mxPoint x="-215" y="50" as="targetPoint" />
          </mxGeometry>
        </mxCell>
        <mxCell id="w0SyWzm86nU4_tot4UUk-47" value="1" style="resizable=0;html=1;whiteSpace=wrap;align=right;verticalAlign=bottom;labelBackgroundColor=none;fillColor=#FAE5C7;strokeColor=#0F8B8D;fontColor=#143642;" parent="w0SyWzm86nU4_tot4UUk-46" connectable="0" vertex="1">
          <mxGeometry x="1" relative="1" as="geometry">
            <mxPoint x="5" y="20" as="offset" />
          </mxGeometry>
        </mxCell>
        <mxCell id="w0SyWzm86nU4_tot4UUk-48" value="Make" style="shape=rhombus;perimeter=rhombusPerimeter;whiteSpace=wrap;html=1;align=center;labelBackgroundColor=none;fillColor=#FAE5C7;strokeColor=#0F8B8D;fontColor=#143642;" parent="1" vertex="1">
          <mxGeometry x="-520" y="264.67" width="120" height="60" as="geometry" />
        </mxCell>
        <mxCell id="w0SyWzm86nU4_tot4UUk-49" value="" style="shape=link;html=1;rounded=0;exitX=0.5;exitY=1;exitDx=0;exitDy=0;labelBackgroundColor=none;fontColor=default;strokeColor=#A8201A;" parent="1" source="w0SyWzm86nU4_tot4UUk-48" target="-mwh8QnspEmpaRvAdiTf-15" edge="1">
          <mxGeometry relative="1" as="geometry">
            <mxPoint x="-330" y="354.66999999999996" as="sourcePoint" />
            <mxPoint x="-380" y="450" as="targetPoint" />
            <Array as="points" />
          </mxGeometry>
        </mxCell>
        <mxCell id="w0SyWzm86nU4_tot4UUk-50" value="N" style="resizable=0;html=1;whiteSpace=wrap;align=right;verticalAlign=bottom;labelBackgroundColor=none;fillColor=#FAE5C7;strokeColor=#0F8B8D;fontColor=#143642;" parent="w0SyWzm86nU4_tot4UUk-49" connectable="0" vertex="1">
          <mxGeometry x="1" relative="1" as="geometry">
            <mxPoint x="-4" as="offset" />
          </mxGeometry>
        </mxCell>
        <mxCell id="rMcG85OANN2F-RszprvZ-1" value="Status" style="ellipse;whiteSpace=wrap;html=1;align=center;labelBackgroundColor=none;fillColor=#FAE5C7;strokeColor=#0F8B8D;fontColor=#143642;" parent="1" vertex="1">
          <mxGeometry x="160" y="1000" width="100" height="40" as="geometry" />
        </mxCell>
        <mxCell id="rMcG85OANN2F-RszprvZ-2" value="" style="endArrow=none;html=1;rounded=0;exitX=0;exitY=0.5;exitDx=0;exitDy=0;entryX=0.75;entryY=1;entryDx=0;entryDy=0;labelBackgroundColor=none;strokeColor=#A8201A;fontColor=default;" parent="1" source="rMcG85OANN2F-RszprvZ-1" target="-mwh8QnspEmpaRvAdiTf-19" edge="1">
          <mxGeometry relative="1" as="geometry">
            <mxPoint x="183" y="1035" as="sourcePoint" />
            <mxPoint x="58" y="970" as="targetPoint" />
          </mxGeometry>
        </mxCell>
        <mxCell id="AZVgcfoW7n6OSGFxWbnk-5" value="" style="endArrow=none;html=1;rounded=0;exitX=0.5;exitY=1;exitDx=0;exitDy=0;entryX=0.5;entryY=0;entryDx=0;entryDy=0;labelBackgroundColor=none;fontColor=default;strokeColor=#A8201A;" parent="1" source="NRucx3k98AE8DFw6DZ2k-10" target="NRucx3k98AE8DFw6DZ2k-8" edge="1">
          <mxGeometry width="50" height="50" relative="1" as="geometry">
            <mxPoint x="260" y="201" as="sourcePoint" />
            <mxPoint x="307.5" y="280" as="targetPoint" />
          </mxGeometry>
        </mxCell>
        <mxCell id="AZVgcfoW7n6OSGFxWbnk-7" value="" style="endArrow=none;html=1;rounded=0;exitX=0.5;exitY=1;exitDx=0;exitDy=0;entryX=0.5;entryY=0;entryDx=0;entryDy=0;labelBackgroundColor=none;fontColor=default;strokeColor=#A8201A;" parent="1" source="NRucx3k98AE8DFw6DZ2k-12" target="NRucx3k98AE8DFw6DZ2k-8" edge="1">
          <mxGeometry width="50" height="50" relative="1" as="geometry">
            <mxPoint x="347.138485117493" y="191.64460595300284" as="sourcePoint" />
            <mxPoint x="307.5" y="280" as="targetPoint" />
          </mxGeometry>
        </mxCell>
        <mxCell id="AZVgcfoW7n6OSGFxWbnk-11" value="" style="endArrow=none;html=1;rounded=0;entryX=0.5;entryY=1;entryDx=0;entryDy=0;exitX=0.5;exitY=0;exitDx=0;exitDy=0;labelBackgroundColor=none;fontColor=default;strokeColor=#A8201A;" parent="1" source="NRucx3k98AE8DFw6DZ2k-8" target="NRucx3k98AE8DFw6DZ2k-13" edge="1">
          <mxGeometry relative="1" as="geometry">
            <mxPoint x="307.5" y="280" as="sourcePoint" />
            <mxPoint x="447.67999999999984" y="208.85699999999997" as="targetPoint" />
          </mxGeometry>
        </mxCell>
        <mxCell id="AZVgcfoW7n6OSGFxWbnk-24" value="" style="endArrow=none;html=1;rounded=0;entryX=1;entryY=0;entryDx=0;entryDy=0;exitX=1;exitY=0.5;exitDx=0;exitDy=0;labelBackgroundColor=none;fontColor=default;strokeColor=#A8201A;" parent="1" source="NRucx3k98AE8DFw6DZ2k-8" target="-mwh8QnspEmpaRvAdiTf-14" edge="1">
          <mxGeometry relative="1" as="geometry">
            <mxPoint x="360" y="320" as="sourcePoint" />
            <mxPoint x="580" y="210" as="targetPoint" />
          </mxGeometry>
        </mxCell>
        <mxCell id="AZVgcfoW7n6OSGFxWbnk-25" value="N" style="resizable=0;html=1;whiteSpace=wrap;align=right;verticalAlign=bottom;labelBackgroundColor=none;fillColor=#FAE5C7;strokeColor=#0F8B8D;fontColor=#143642;" parent="AZVgcfoW7n6OSGFxWbnk-24" connectable="0" vertex="1">
          <mxGeometry x="1" relative="1" as="geometry" />
        </mxCell>
        <mxCell id="AZVgcfoW7n6OSGFxWbnk-26" value="" style="endArrow=none;html=1;rounded=0;entryX=0.75;entryY=1;entryDx=0;entryDy=0;exitX=0;exitY=0.5;exitDx=0;exitDy=0;labelBackgroundColor=none;fontColor=default;strokeColor=#A8201A;" parent="1" source="NRucx3k98AE8DFw6DZ2k-8" target="LDHJJX_q3aMVxdRy0C8B-28" edge="1">
          <mxGeometry relative="1" as="geometry">
            <mxPoint x="255" y="320" as="sourcePoint" />
            <mxPoint x="580" y="210" as="targetPoint" />
          </mxGeometry>
        </mxCell>
        <mxCell id="AZVgcfoW7n6OSGFxWbnk-28" value="N" style="resizable=0;html=1;whiteSpace=wrap;align=right;verticalAlign=bottom;labelBackgroundColor=none;fillColor=#FAE5C7;strokeColor=#0F8B8D;fontColor=#143642;" parent="1" connectable="0" vertex="1">
          <mxGeometry x="609.9962470718376" y="181.00015617679594" as="geometry">
            <mxPoint x="6" y="1" as="offset" />
          </mxGeometry>
        </mxCell>
        <mxCell id="NRucx3k98AE8DFw6DZ2k-5" value="N" style="resizable=0;html=1;whiteSpace=wrap;align=right;verticalAlign=bottom;labelBackgroundColor=none;fillColor=#FAE5C7;strokeColor=#0F8B8D;fontColor=#143642;" parent="1" connectable="0" vertex="1">
          <mxGeometry x="609.9962470718376" y="199.00015617679594" as="geometry">
            <mxPoint x="-482" y="-125" as="offset" />
          </mxGeometry>
        </mxCell>
        <mxCell id="NRucx3k98AE8DFw6DZ2k-8" value="Make_Review" style="shape=rhombus;perimeter=rhombusPerimeter;whiteSpace=wrap;html=1;align=center;labelBackgroundColor=none;fillColor=#FAE5C7;strokeColor=#0F8B8D;fontColor=#143642;" parent="1" vertex="1">
          <mxGeometry x="250" y="300" width="120" height="60" as="geometry" />
        </mxCell>
        <mxCell id="NRucx3k98AE8DFw6DZ2k-10" value="Date" style="ellipse;whiteSpace=wrap;html=1;align=center;labelBackgroundColor=none;fillColor=#FAE5C7;strokeColor=#0F8B8D;fontColor=#143642;" parent="1" vertex="1">
          <mxGeometry x="210" y="150" width="100" height="40" as="geometry" />
        </mxCell>
        <mxCell id="NRucx3k98AE8DFw6DZ2k-12" value="Comment" style="ellipse;whiteSpace=wrap;html=1;align=center;labelBackgroundColor=none;fillColor=#FAE5C7;strokeColor=#0F8B8D;fontColor=#143642;" parent="1" vertex="1">
          <mxGeometry x="330" y="150" width="100" height="40" as="geometry" />
        </mxCell>
        <mxCell id="NRucx3k98AE8DFw6DZ2k-13" value="Rate" style="ellipse;whiteSpace=wrap;html=1;align=center;labelBackgroundColor=none;fillColor=#FAE5C7;strokeColor=#0F8B8D;fontColor=#143642;" parent="1" vertex="1">
          <mxGeometry x="440" y="159" width="100" height="40" as="geometry" />
        </mxCell>
        <mxCell id="NRucx3k98AE8DFw6DZ2k-14" value="User_Name" style="ellipse;whiteSpace=wrap;html=1;align=center;labelBackgroundColor=none;fillColor=#FAE5C7;strokeColor=#0F8B8D;fontColor=#143642;" parent="1" vertex="1">
          <mxGeometry x="50" y="-320" width="100" height="40" as="geometry" />
        </mxCell>
        <mxCell id="lhvre4egpvU0iCBvVIEq-1" value="Location" style="ellipse;whiteSpace=wrap;html=1;align=center;labelBackgroundColor=none;fillColor=#FAE5C7;strokeColor=#0F8B8D;fontColor=#143642;" parent="1" vertex="1">
          <mxGeometry x="790" y="80" width="100" height="40" as="geometry" />
        </mxCell>
        <mxCell id="lhvre4egpvU0iCBvVIEq-2" value="" style="endArrow=none;html=1;rounded=0;exitX=0.5;exitY=1;exitDx=0;exitDy=0;entryX=0.5;entryY=1;entryDx=0;entryDy=0;labelBackgroundColor=none;strokeColor=#A8201A;fontColor=default;" parent="1" source="-mwh8QnspEmpaRvAdiTf-14" target="lhvre4egpvU0iCBvVIEq-1" edge="1">
          <mxGeometry relative="1" as="geometry">
            <mxPoint x="400" y="240" as="sourcePoint" />
            <mxPoint x="560" y="240" as="targetPoint" />
          </mxGeometry>
        </mxCell>
        <mxCell id="lhvre4egpvU0iCBvVIEq-3" value="" style="endArrow=none;html=1;rounded=0;exitX=0.5;exitY=0;exitDx=0;exitDy=0;entryX=0.5;entryY=1;entryDx=0;entryDy=0;labelBackgroundColor=none;strokeColor=#A8201A;fontColor=default;" parent="1" source="lhvre4egpvU0iCBvVIEq-1" target="lhvre4egpvU0iCBvVIEq-4" edge="1">
          <mxGeometry relative="1" as="geometry">
            <mxPoint x="400" y="240" as="sourcePoint" />
            <mxPoint x="560" y="240" as="targetPoint" />
          </mxGeometry>
        </mxCell>
        <mxCell id="lhvre4egpvU0iCBvVIEq-4" value="Latitude" style="ellipse;whiteSpace=wrap;html=1;align=center;labelBackgroundColor=none;fillColor=#FAE5C7;strokeColor=#0F8B8D;fontColor=#143642;" parent="1" vertex="1">
          <mxGeometry x="910" y="19.97" width="100" height="40" as="geometry" />
        </mxCell>
        <mxCell id="lhvre4egpvU0iCBvVIEq-5" value="Longitude" style="ellipse;whiteSpace=wrap;html=1;align=center;labelBackgroundColor=none;fillColor=#FAE5C7;strokeColor=#0F8B8D;fontColor=#143642;" parent="1" vertex="1">
          <mxGeometry x="800" width="100" height="40" as="geometry" />
        </mxCell>
        <mxCell id="lhvre4egpvU0iCBvVIEq-6" value="" style="endArrow=none;html=1;rounded=0;entryX=0.5;entryY=0;entryDx=0;entryDy=0;exitX=0.5;exitY=1;exitDx=0;exitDy=0;labelBackgroundColor=none;strokeColor=#A8201A;fontColor=default;" parent="1" source="lhvre4egpvU0iCBvVIEq-5" target="lhvre4egpvU0iCBvVIEq-1" edge="1">
          <mxGeometry relative="1" as="geometry">
            <mxPoint x="890" y="70" as="sourcePoint" />
            <mxPoint x="560" y="240" as="targetPoint" />
          </mxGeometry>
        </mxCell>
        <mxCell id="lhvre4egpvU0iCBvVIEq-11" value="Quantity" style="ellipse;whiteSpace=wrap;html=1;align=center;labelBackgroundColor=none;fillColor=#FAE5C7;strokeColor=#0F8B8D;fontColor=#143642;" parent="1" vertex="1">
          <mxGeometry x="260" y="600" width="100" height="40" as="geometry" />
        </mxCell>
        <mxCell id="lhvre4egpvU0iCBvVIEq-12" value="" style="endArrow=none;html=1;rounded=0;exitX=0.5;exitY=0;exitDx=0;exitDy=0;entryX=0.5;entryY=1;entryDx=0;entryDy=0;labelBackgroundColor=none;strokeColor=#A8201A;fontColor=default;" parent="1" source="LDHJJX_q3aMVxdRy0C8B-15" target="lhvre4egpvU0iCBvVIEq-11" edge="1">
          <mxGeometry relative="1" as="geometry">
            <mxPoint x="290" y="700" as="sourcePoint" />
            <mxPoint x="450" y="700" as="targetPoint" />
          </mxGeometry>
        </mxCell>
        <mxCell id="lhvre4egpvU0iCBvVIEq-13" value="Status" style="ellipse;whiteSpace=wrap;html=1;align=center;labelBackgroundColor=none;fillColor=#FAE5C7;strokeColor=#0F8B8D;fontColor=#143642;" parent="1" vertex="1">
          <mxGeometry x="200" y="490" width="100" height="40" as="geometry" />
        </mxCell>
        <mxCell id="lhvre4egpvU0iCBvVIEq-14" value="" style="endArrow=none;html=1;rounded=0;entryX=0.5;entryY=0;entryDx=0;entryDy=0;exitX=0.5;exitY=1;exitDx=0;exitDy=0;labelBackgroundColor=none;fontColor=default;strokeColor=#A8201A;" parent="1" source="lhvre4egpvU0iCBvVIEq-13" target="-mwh8QnspEmpaRvAdiTf-18" edge="1">
          <mxGeometry relative="1" as="geometry">
            <mxPoint x="225" y="495" as="sourcePoint" />
            <mxPoint x="75" y="535" as="targetPoint" />
          </mxGeometry>
        </mxCell>
        <mxCell id="B1hgQw8FeCGOT0nWeUEO-1" value="Address" style="ellipse;whiteSpace=wrap;html=1;align=center;labelBackgroundColor=none;fillColor=#FAE5C7;strokeColor=#0F8B8D;fontColor=#143642;" vertex="1" parent="1">
          <mxGeometry x="100" y="-150" width="100" height="40" as="geometry" />
        </mxCell>
        <mxCell id="B1hgQw8FeCGOT0nWeUEO-2" value="" style="endArrow=none;html=1;rounded=0;entryX=0.5;entryY=0;entryDx=0;entryDy=0;exitX=0.5;exitY=0;exitDx=0;exitDy=0;labelBackgroundColor=none;fontColor=default;strokeColor=#A8201A;" edge="1" parent="1" source="-mwh8QnspEmpaRvAdiTf-20" target="B1hgQw8FeCGOT0nWeUEO-1">
          <mxGeometry width="50" height="50" relative="1" as="geometry">
            <mxPoint y="-149" as="sourcePoint" />
            <mxPoint x="140" y="-159" as="targetPoint" />
          </mxGeometry>
        </mxCell>
        <mxCell id="B1hgQw8FeCGOT0nWeUEO-4" value="Birthday" style="ellipse;whiteSpace=wrap;html=1;align=center;labelBackgroundColor=none;fillColor=#FAE5C7;strokeColor=#0F8B8D;fontColor=#143642;" vertex="1" parent="1">
          <mxGeometry x="135" y="-280" width="100" height="40" as="geometry" />
        </mxCell>
        <mxCell id="B1hgQw8FeCGOT0nWeUEO-5" value="" style="endArrow=none;html=1;rounded=0;entryX=0.5;entryY=1;entryDx=0;entryDy=0;exitX=0.5;exitY=0;exitDx=0;exitDy=0;labelBackgroundColor=none;fontColor=default;strokeColor=#A8201A;" edge="1" parent="1" source="-mwh8QnspEmpaRvAdiTf-20" target="B1hgQw8FeCGOT0nWeUEO-4">
          <mxGeometry width="50" height="50" relative="1" as="geometry">
            <mxPoint y="-149" as="sourcePoint" />
            <mxPoint x="160" y="-140" as="targetPoint" />
          </mxGeometry>
        </mxCell>
      </root>
    </mxGraphModel>
  </diagram>
</mxfile>
